<?xml version="1.0" encoding="utf-8"?>
<!-- Generator: Adobe Illustrator 16.0.0, SVG Export Plug-In . SVG Version: 6.00 Build 0)  -->
<!DOCTYPE svg PUBLIC "-//W3C//DTD SVG 1.1//EN" "http://www.w3.org/Graphics/SVG/1.1/DTD/svg11.dtd">
<svg version="1.1" id="Layer_1" xmlns="http://www.w3.org/2000/svg" xmlns:xlink="http://www.w3.org/1999/xlink" x="0px" y="0px"
	 width="200px" height="100px" viewBox="0 0 200 100" enable-background="new 0 0 200 100" xml:space="preserve">
<symbol  id="logo" viewBox="-208 -61 412 138">
	<g>
		<path fill="#73918B" d="M33.949-32c2.635,0,5.066-2.234,5.066-8c0-5.765-2.432-8-5.066-8H-11V68.699c0,5.125,1.351,8.008,5,8.008
			c3.648,0,5-2.883,5-8.008V-32H33.949z"/>
		<path fill="#9FB03D" d="M60.059-21c-1.703,0-4.014,0.447-4.014,3c0,2.494,2.068,3,4.014,3h8.026c3.04,0,5.229-0.358,7.54-2.668
			c2.25-2.25,2.554-4.041,2.615-6.958l0.607-19.837c0.061-1.703-0.791-3.412-2.736-3.412c-1.52,0-3.04,1.274-2.979,2.916
			l-4.013-2.127C67.477-47.939,67.416-48,65.531-48h-5.594c-2.615,0-4.634,0.362-6.763,2.126C50.743-43.867,50-41.681,50-38.641
			v2.555c0,2.797,0.803,4.755,2.993,6.701C54.999-27.621,57.383-27,59.938-27H72v0.947C72-21.676,71.49-21,67.295-21H60.059z
			 M59.998-33C58.417-33,56-33.654,56-35.782v-3.892C56-41.62,58.478-42,59.876-42h6.446L73-38.701v1.277
			C73-34.201,71.855-33,68.633-33H59.998z"/>
		<path fill="#9FB03D" d="M92-28.668c0,3.588,0.51,5.352,3.308,7.662l4.237,3.641c2.736,2.25,4.055,2.365,7.46,2.365h9.243
			c1.945,0,4.013-0.506,4.013-3c0-2.553-2.311-3-4.013-3h-10.277c-1.154,0-2.311-0.581-3.344-1.432l-3.287-2.967
			C98.428-26.128,98-26.723,98-27.878v-7.235c0-1.155,0.428-1.764,1.34-2.493l3.407-2.957c1.033-0.852,2.069-1.437,3.224-1.437
			h10.277c1.702,0,4.013-0.446,4.013-3c0-2.493-2.067-3-4.013-3h-9.243c-3.405,0-4.804,0.119-7.54,2.369l-4.157,3.617
			C92.51-39.703,92-37.91,92-34.323V-28.668z"/>
		<path fill="#9FB03D" d="M143.797-48c-2.432,0-3.405,0.059-5.229,1.64l-2.541,2.218c-2.311,2.068-3.027,3.435-3.027,6.597v11.249
			c0,3.102,0.473,4.926,2.906,6.993l2.09,1.817c2.736,2.372,4.098,2.487,6.47,2.487h5.351c2.857,0,4.195-0.358,6.445-2.182
			l2.535-1.912C161.472-21.223,162-23.5,162-26.723v-4.682c0-3.345-0.873-4.596-4.34-4.596H139v-1.667
			c0-0.548,0.392-1.277,0.817-1.703l1.443-1.559c0.79-0.851,1.929-1.071,3.875-1.071h12.525c1.946,0,4.014-0.507,4.014-3
			c0-2.554-2.311-3-4.014-3H143.797z M139-30h17v3.643c0,1.095-0.021,2.007-0.811,2.736l-2.291,1.918
			c-0.73,0.67-1.926,0.703-2.838,0.703h-4.926c-1.095,0-2.007,0.027-2.979-0.642l-1.973-1.446C139.453-23.635,139-24.047,139-25.75
			V-30z"/>
		<path fill="#9FB03D" d="M197-22.466v3.345c0,2.006,0.506,4.013,3,4.013s3-2.007,3-4.013v-2.371c0-1.46-0.078-2.434-0.686-3.71
			l-14.693-31.901C186.344-59.84,185.696-60,183.021-60h-4.499c-1.703,0-4.014,0.446-4.014,3c0,2.492,2.067,3,4.014,3h4.013l4.317,8
			h-0.304c-2.433,0-2.554,1.339-3.466,3.346l-6.93,15.992c-0.79,1.764-1.152,3.224-1.152,4.926v2.615c0,2.006,0.007,4.013,2.5,4.013
			s2.5-2.007,2.5-4.013v-3.345L188.189-40h1.277L197-22.466z"/>
	</g>
	<polygon fill="#73918B" points="-85,76 -85,38 -145,38 -145,1 -208,1 -208,-48 -146.381,-48 -84.441,-48 -22,-48 -22,76 	"/>
	<g>
		<path fill="#FFFFFF" d="M-174.399-32.484c0.341-1.503,0.556-2.451,0.108-3.968c-0.833-2.557-2.658-3.679-5.109-4.233l-2.293-0.521
			c-2.214-0.501-4.202-0.535-6.056,1.04c-1.284,1.081-1.772,2.134-2.131,3.716l-1.299,5.732c-0.286,1.266,0.105,2.104,1.528,2.426
			c1.424,0.324,2.139-0.264,2.426-1.528l1.164-5.14c0.52-2.294,1.139-2.818,3.471-2.291l2.175,0.493
			c1.661,0.376,2.635,0.847,2.204,2.744l-5.143,22.696c-0.287,1.265,0.105,2.102,1.529,2.425c1.423,0.322,2.139-0.264,2.425-1.529
			L-174.399-32.484z"/>
		<path fill="#FFFFFF" d="M-164.715-22.392c-0.574,2.531-0.258,3.517,1.291,5.489c1.51,1.962,2.244,2.753,4.895,3.354l3.004,0.682
			c2.65,0.601,3.654,0.203,5.862-0.917c2.247-1.112,2.958-1.865,3.532-4.395l1.621-7.159c0.564-2.49,0.147-3.582-1.453-5.69
			c-1.602-2.109-2.32-2.605-4.732-3.151l-3.005-0.681c-2.412-0.548-3.274-0.41-5.628,0.804c-2.354,1.211-3.201,2.018-3.766,4.508
			L-164.715-22.392z M-159.298-28.689c0.179-0.789,0.573-1.24,1.896-1.939c0.99-0.522,1.656-0.705,2.842-0.436l3.006,0.681
			c1.186,0.269,1.707,0.721,2.377,1.619c0.891,1.2,1.052,1.776,0.873,2.566l-1.623,7.159c-0.179,0.789-0.572,1.24-1.895,1.939
			c-0.991,0.522-1.656,0.705-2.842,0.436l-3.006-0.682c-1.186-0.269-1.707-0.719-2.377-1.618c-0.892-1.201-1.053-1.777-0.873-2.567
			L-159.298-28.689z"/>
		<path fill="#FFFFFF" d="M-130.625-11.216c-1.107-0.251-2.664-0.354-3.039,1.307c-0.368,1.621,0.914,2.203,2.179,2.49l5.22,1.182
			c1.977,0.449,3.445,0.572,5.288-0.589c1.794-1.131,2.251-2.232,2.722-4.123l3.316-12.8c0.291-1.098-0.012-2.331-1.277-2.617
			c-0.989-0.224-2.166,0.383-2.367,1.459l-2.306-1.937c-0.942-0.795-0.981-0.804-2.208-1.082l-3.637-0.824
			c-1.7-0.385-2.971-0.465-4.615,0.368c-1.877,0.946-2.586,2.24-3.033,4.217l-0.377,1.661c-0.412,1.818-0.237,3.064,0.899,4.651
			c1.045,1.443,2.444,2.052,4.106,2.428l8.145,1.847l-0.197,0.869c-0.645,2.847-1.385,3.179-4.113,2.559L-130.625-11.216z
			 M-128.854-19.211c-1.028-0.233-2.468-0.851-2.155-2.234l0.574-2.531c0.287-1.266,1.892-1.192,2.802-0.986l4.19,0.95l3.698,3.124
			l-0.188,0.83c-0.475,2.096-1.211,2.594-3.307,2.12L-128.854-19.211z"/>
		<path fill="#FFFFFF" d="M-103.85-9.222l2.5-11.031c0.295-1.305,0.314-2.673-1.307-3.04s-2.193,0.875-2.489,2.18l-3.603,15.895
			c-0.312,1.384-0.478,2.845,1.262,3.238c1.701,0.386,2.221-0.994,2.525-2.338l0.099-0.436l0.019-0.079l2.626,2.715
			c0.845,0.858,1.77,1.732,2.996,2.011l2.807,0.635c1.463,0.332,2.462,0.144,3.833-0.585c2.032-1.079,2.32-2.717,2.865-4.756
			l3.102-11.852c0.344-1.335,0.487-2.883-1.213-3.269c-1.542-0.349-2.154,0.885-2.48,2.142l-3.048,11.613
			c-0.607,2.316-1.011,3.18-3.304,2.659l-1.265-0.285c-0.396-0.09-0.764-0.298-1.106-0.625L-103.85-9.222z"/>
		<path fill="#FFFFFF" d="M-75.382-2.77l2.5-11.032c0.296-1.305,0.315-2.672-1.307-3.04c-1.621-0.367-2.193,0.875-2.489,2.181
			L-80.28,1.232c-0.313,1.384-0.478,2.845,1.262,3.238c1.7,0.386,2.221-0.993,2.525-2.337l0.099-0.436l0.018-0.078l2.627,2.714
			c0.845,0.857,1.77,1.731,2.995,2.01l2.808,0.636c1.463,0.332,2.461,0.142,3.832-0.586c2.032-1.079,2.32-2.716,2.865-4.756
			l3.102-11.851c0.344-1.336,0.487-2.883-1.213-3.269c-1.542-0.35-2.155,0.885-2.48,2.142l-3.048,11.612
			c-0.609,2.316-1.012,3.18-3.306,2.66l-1.265-0.286c-0.395-0.09-0.764-0.298-1.105-0.624L-75.382-2.77z"/>
		<path fill="#FFFFFF" d="M-45.222,8.139c-1.107-0.25-2.664-0.354-3.04,1.307c-0.368,1.621,0.914,2.203,2.18,2.49l5.219,1.183
			c1.977,0.448,3.445,0.572,5.288-0.59c1.794-1.13,2.252-2.233,2.721-4.122l3.317-12.8c0.291-1.099-0.012-2.331-1.277-2.618
			c-0.988-0.224-2.166,0.384-2.367,1.459l-2.305-1.935c-0.942-0.797-0.981-0.806-2.207-1.084l-3.638-0.824
			c-1.7-0.385-2.97-0.464-4.615,0.368c-1.876,0.946-2.586,2.241-3.034,4.218l-0.377,1.66c-0.412,1.82-0.237,3.064,0.899,4.651
			c1.045,1.443,2.446,2.052,4.106,2.428l8.145,1.847l-0.197,0.87c-0.645,2.847-1.385,3.178-4.113,2.56L-45.222,8.139z
			 M-43.451,0.144c-1.029-0.233-2.468-0.851-2.155-2.234l0.574-2.53c0.287-1.267,1.892-1.193,2.801-0.986l4.191,0.949l3.699,3.124
			l-0.188,0.83c-0.475,2.096-1.211,2.595-3.308,2.12L-43.451,0.144z"/>
	</g>
	<polygon id="_x3C_Slice_x3E__1_" fill="none" points="-208,-61 -208,77 204,77 204,-61 	"/>
	<polygon display="none" fill="none" points="-208,77 204,77 204,-61 -208,-61 	"/>
</symbol>
<use xlink:href="#logo"  width="412" height="138" x="-208" y="-61" transform="matrix(0.4764 0 0 -0.4764 100.8052 54.5605)" overflow="visible"/>
</svg>
